<?xml version="1.0" encoding="UTF-8" standalone="no" ?>
<!DOCTYPE svg PUBLIC "-//W3C//DTD SVG 1.1//EN" "http://www.w3.org/Graphics/SVG/1.1/DTD/svg11.dtd">
<svg xmlns="http://www.w3.org/2000/svg" xmlns:xlink="http://www.w3.org/1999/xlink" version="1.1" width="1080" height="1080" viewBox="0 0 1080 1080" xml:space="preserve">
<desc>Created with Fabric.js 5.2.4</desc>
<defs>
</defs>
<g transform="matrix(1 0 0 1 540 540)" id="19865e91-bfac-44ae-8e2b-862955723bd0"  >
</g>
<g transform="matrix(1 0 0 1 540 540)" id="47c41fbc-b931-4cf5-abd9-722e3dd49c58"  >
<rect style="stroke: none; stroke-width: 1; stroke-dasharray: none; stroke-linecap: butt; stroke-dashoffset: 0; stroke-linejoin: miter; stroke-miterlimit: 4; fill: rgb(255,255,255); fill-rule: nonzero; opacity: 1; visibility: hidden;" vector-effect="non-scaling-stroke"  x="-540" y="-540" rx="0" ry="0" width="1080" height="1080" />
</g>
<g transform="matrix(0 0 0 0 0 0)"  >
<g style=""   >
</g>
</g>
<g transform="matrix(0 0 0 0 0 0)"  >
<g style=""   >
</g>
</g>
<g transform="matrix(5.16 0 0 5.16 324.97 477.62)"  >
<path style="stroke: none; stroke-width: 1; stroke-dasharray: none; stroke-linecap: butt; stroke-dashoffset: 0; stroke-linejoin: miter; stroke-miterlimit: 4; fill: rgb(33,150,243); fill-rule: nonzero; opacity: 1;" vector-effect="non-scaling-stroke"  transform=" translate(-10.99, -20.53)" d="M 10.987 31.5841 C 4.92849 31.5841 0 26.626 0 20.5323 C 0 14.4385 4.92899 9.48041 10.987 9.48041 C 17.045 9.48041 21.974 14.4385 21.974 20.5323 C 21.974 26.626 17.0459 31.5841 10.987 31.5841 Z M 10.987 10.536 C 5.50765 10.536 1.04938 15.0196 1.04938 20.5318 C 1.04938 26.044 5.50765 30.5275 10.987 30.5275 C 16.4663 30.5275 20.9251 26.0429 20.9251 20.5308 C 20.9251 15.0186 16.4673 10.536 10.987 10.536 Z" stroke-linecap="round" />
</g>
<g transform="matrix(5.16 0 0 5.16 344.58 480.59)"  >
<path style="stroke: none; stroke-width: 1; stroke-dasharray: none; stroke-linecap: butt; stroke-dashoffset: 0; stroke-linejoin: miter; stroke-miterlimit: 4; fill: rgb(33,150,243); fill-rule: nonzero; opacity: 1;" vector-effect="non-scaling-stroke"  transform=" translate(-14.79, -21.11)" d="M 18.96 21.0225 C 18.6182 19.7483 15.4851 19.6108 13.6203 20.0779 C 12.6437 20.3235 11.6456 20.6428 10.6162 20.8265 C 11.3697 21.4989 12.1788 22.135 13.34 22.2932 C 16.2211 22.6842 18.0112 21.775 18.96 21.0225 Z" stroke-linecap="round" />
</g>
<g transform="matrix(5.16 0 0 5.16 326.49 494.37)"  >
<path style="stroke: none; stroke-width: 1; stroke-dasharray: none; stroke-linecap: butt; stroke-dashoffset: 0; stroke-linejoin: miter; stroke-miterlimit: 4; fill: rgb(103,58,183); fill-rule: nonzero; opacity: 1;" vector-effect="non-scaling-stroke"  transform=" translate(-11.28, -23.78)" d="M 13.34 22.2932 C 12.1764 22.135 11.3697 21.4989 10.6162 20.8265 C 9.45013 19.7857 8.41298 18.6579 6.37723 19.0823 C 3.14069 19.7572 2.71488 23.6081 5.21404 26.0828 C 6.28706 27.2131 7.66455 28.0041 9.17779 28.3586 C 10.691 28.7132 12.2742 28.616 13.7333 28.079 C 15.1924 27.5419 16.4641 26.5883 17.3925 25.3352 C 18.3209 24.0819 18.8656 22.5835 18.96 21.0235 C 18.0112 21.775 16.221 22.6842 13.34 22.2932 Z" stroke-linecap="round" />
</g>
<g transform="matrix(5.16 0 0 5.16 355.14 455.32)"  >
<path style="stroke: none; stroke-width: 1; stroke-dasharray: none; stroke-linecap: butt; stroke-dashoffset: 0; stroke-linejoin: miter; stroke-miterlimit: 4; fill: rgb(33,150,243); fill-rule: nonzero; opacity: 1;" vector-effect="non-scaling-stroke"  transform=" translate(-16.84, -16.21)" d="M 15.034 13.9586 C 14.6301 14.8295 18.2304 15.7957 18.6611 18.6879 C 18.8687 15.8409 15.5335 12.882 15.034 13.9586 Z" stroke-linecap="round" />
</g>
<g transform="matrix(5.16 0 0 5.16 304.29 456.35)"  >
<path style="stroke: none; stroke-width: 1; stroke-dasharray: none; stroke-linecap: butt; stroke-dashoffset: 0; stroke-linejoin: miter; stroke-miterlimit: 4; fill: rgb(103,58,183); fill-rule: nonzero; opacity: 1;" vector-effect="non-scaling-stroke"  transform=" translate(-6.98, -16.41)" d="M 7.46619 17.5935 C 8.11524 17.3231 8.42345 16.5746 8.15463 15.9217 C 7.8858 15.2688 7.14167 14.9587 6.49262 15.2292 C 5.84357 15.4996 5.53536 16.2481 5.80418 16.9011 C 6.07306 17.5539 6.81714 17.8639 7.46619 17.5935 Z" stroke-linecap="round" />
</g>
<g transform="matrix(5.16 0 0 5.16 318.86 441.48)"  >
<path style="stroke: none; stroke-width: 1; stroke-dasharray: none; stroke-linecap: butt; stroke-dashoffset: 0; stroke-linejoin: miter; stroke-miterlimit: 4; fill: rgb(33,150,243); fill-rule: nonzero; opacity: 1;" vector-effect="non-scaling-stroke"  transform=" translate(-9.81, -13.53)" d="M 10.3549 14.08 C 10.6585 13.7746 10.6585 13.2795 10.3549 12.9741 C 10.0513 12.6687 9.55909 12.6687 9.25551 12.9741 C 8.95194 13.2795 8.95194 13.7746 9.25551 14.08 C 9.55909 14.3854 10.0513 14.3854 10.3549 14.08 Z" stroke-linecap="round" />
</g>
<g transform="matrix(5.16 0 0 5.16 324.36 399.64)"  >
<path style="stroke: none; stroke-width: 1; stroke-dasharray: none; stroke-linecap: butt; stroke-dashoffset: 0; stroke-linejoin: miter; stroke-miterlimit: 4; fill: rgb(33,150,243); fill-rule: nonzero; opacity: 1;" vector-effect="non-scaling-stroke"  transform=" translate(-10.87, -5.42)" d="M 13.1014 9.05206 C 14.2245 5.7149 13.4696 3.04871 11.1614 1.78241 C 9.58359 2.10513 8.647 2.87335 8.12549 3.93383 C 11.2204 3.68185 13.1844 5.63041 13.1014 9.05206 Z" stroke-linecap="round" />
</g>
<g transform="matrix(5.16 0 0 5.16 376.05 413.48)"  >
<path style="stroke: none; stroke-width: 1; stroke-dasharray: none; stroke-linecap: butt; stroke-dashoffset: 0; stroke-linejoin: miter; stroke-miterlimit: 4; fill: rgb(33,150,243); fill-rule: nonzero; opacity: 1;" vector-effect="non-scaling-stroke"  transform=" translate(-20.89, -8.1)" d="M 25.6983 6.13641 C 20.1389 4.1294 16.6304 4.81756 16.0786 9.39055 C 19.2648 12.6973 22.474 11.1146 25.6983 6.13641 Z" stroke-linecap="round" />
</g>
<g transform="matrix(5.16 0 0 5.16 361.98 394.44)"  >
<path style="stroke: none; stroke-width: 1; stroke-dasharray: none; stroke-linecap: butt; stroke-dashoffset: 0; stroke-linejoin: miter; stroke-miterlimit: 4; fill: rgb(33,150,243); fill-rule: nonzero; opacity: 1;" vector-effect="non-scaling-stroke"  transform=" translate(-18.16, -4.41)" d="M 21.2765 4.32541 C 21.5343 3.21728 21.6681 1.90776 21.6881 0.41748 C 15.9226 1.70883 13.3224 4.17658 15.2839 8.33846 C 15.3816 8.36203 15.4754 8.38119 15.5696 8.40085 C 16.0281 5.14422 18.0463 3.93835 21.2765 4.32541 Z" stroke-linecap="round" />
</g>
<g transform="matrix(1 0 0 1 827.59 481.41)" style="" id="e9f538b6-9d8b-4a00-b481-98fe63b3cc03"  >
		<text xml:space="preserve" font-family="Raleway" font-size="73" font-style="normal" font-weight="400" style="stroke: none; stroke-width: 1; stroke-dasharray: none; stroke-linecap: butt; stroke-dashoffset: 0; stroke-linejoin: miter; stroke-miterlimit: 4; fill: rgb(0,0,0); fill-opacity: 0.75; fill-rule: nonzero; opacity: 1; white-space: pre;" ><tspan x="-432" y="22.93" >F</tspan><tspan x="-389.66" y="22.93" >e</tspan><tspan x="-344.98" y="22.93" >e</tspan><tspan x="-300.31" y="22.93" >d</tspan><tspan x="-253.08" y="22.93" >i</tspan><tspan x="-235.34" y="22.93" >n</tspan><tspan x="-190.95" y="22.93" >g</tspan><tspan x="-144.02" y="22.93" >s</tspan><tspan x="-106.64" y="22.93" >c</tspan><tspan x="-64.74" y="22.93" >h</tspan><tspan x="-20.35" y="22.93" >e</tspan><tspan x="24.32" y="22.93" >m</tspan><tspan x="93.23" y="22.93" >e</tspan></text>
</g>
</svg>